<svg aria-hidden="true" style="position: absolute; width: 0; height: 0; overflow: hidden;" version="1.1" xmlns="http://www.w3.org/2000/svg" xmlns:xlink="http://www.w3.org/1999/xlink">
<defs>
<symbol id="freysoft-fullcolor-logo-1" viewBox="0 0 112 32">
<path fill="#fff" style="fill: var(--color1, #fff)" d="M37.644 12.43v1.452h4.841v2.623h-4.841v4.261h-3.025v-11.111h8.202v2.778l-5.177-0.003zM52.852 20.762h-3.116c-0.137-0.297-0.198-0.638-0.212-1.122l-0.047-1.264c-0.047-1.263-0.62-1.452-1.466-1.452h-1.574v3.838h-3.026v-11.111h5.296c2.936 0 4.009 1.56 4.009 3.29 0 1.078-0.529 2.078-1.679 2.609 1.257 0.482 1.438 1.419 1.484 2.604l0.061 1.482c0.015 0.468 0.119 0.858 0.271 1.126zM48.251 14.644c0.894 0 1.347-0.468 1.347-1.278 0-0.795-0.454-1.282-1.347-1.282h-1.815v2.56h1.815zM56.594 12.43v1.467h4.993v2.59h-4.993v1.497h5.479v2.778h-8.505v-11.111h8.505v2.778h-5.479zM73.467 9.651l-3.948 6.836v4.276h-3.026v-4.276l-4.009-6.835h3.404l0.695 1.247c0.501 0.907 0.998 1.81 1.484 2.716 0.654-1.337 1.128-2.231 1.619-3.114l-0.196 0.384 0.666-1.234h3.31zM72.761 17.11h2.907c0.029 1.311 0.862 1.531 2.028 1.531 1.030 0 1.513-0.376 1.513-0.999 0-0.639-0.378-0.858-1.697-1.077l-0.847-0.141c-2.435-0.405-3.739-1.575-3.739-3.589 0-1.92 1.395-3.432 4.42-3.432 2.846 0 4.478 1.233 4.6 3.666h-2.846c-0.047-0.873-0.529-1.296-1.711-1.296-0.955 0-1.376 0.342-1.376 0.921 0 0.673 0.501 0.907 1.574 1.092l0.894 0.156c2.633 0.454 3.843 1.483 3.843 3.466 0 2.482-1.938 3.604-4.751 3.604-3.253 0-4.813-1.623-4.813-3.901zM82.404 15.204c0-3.543 2.302-5.806 5.658-5.806 3.343 0 5.659 2.263 5.659 5.807s-2.316 5.806-5.659 5.806c-3.357 0-5.658-2.262-5.658-5.806zM90.573 15.204c0-1.964-0.998-3.105-2.511-3.105s-2.51 1.14-2.51 3.106c0 1.98 0.998 3.106 2.51 3.106s2.511-1.122 2.511-3.106zM97.45 12.43v1.452h4.841v2.623h-4.841v4.261h-3.026v-11.111h8.202v2.778l-5.176-0.003zM112.409 12.43h-3.177v8.332h-3.026v-8.332h-3.177v-2.778h9.38v2.778z"></path>
<path fill="#18e8a4" style="fill: var(--color2, #18e8a4)" d="M0 15.13l14.567-14.622 14.567 14.624-14.567 14.623-14.567-14.625z"></path>
<path fill="#020213" style="fill: var(--color3, #020213)" d="M25.086 15.083l-1.995-2.010-7.057 7.114v-4.016l5.066-5.104-1.991-2.006-3.074 3.097v-5.608h-2.818v5.608l-3.074-3.097-1.995 2.006 5.069 5.104v15.263h2.818v-7.232l9.052-9.119z"></path>
</symbol>
<symbol id="menu" viewBox="0 0 32 32">
<path fill="#fff" style="fill: var(--color1, #fff)" d="M5.333 5.333h21.333v2.667h-21.333v-2.667zM5.333 14.667h21.333v2.667h-21.333v-2.667zM26.667 24h-21.333v2.667h21.333v-2.667z"></path>
</symbol>
<symbol id="contact" viewBox="0 0 32 32">
<path fill="#fff" style="fill: var(--color1, #fff)" d="M26.667 20.667c-1.667 0-3.267-0.267-4.76-0.76-0.123-0.041-0.265-0.064-0.413-0.064-0.368 0-0.703 0.146-0.948 0.384l-2.933 2.933c-3.799-1.961-6.82-4.978-8.734-8.662l-0.053-0.112 2.933-2.947c0.373-0.36 0.48-0.88 0.333-1.347-0.482-1.414-0.76-3.044-0.76-4.738 0-0.008 0-0.016 0-0.024v0.001c0-0.733-0.6-1.333-1.333-1.333h-4.667c-0.733 0-1.333 0.6-1.333 1.333 0 12.52 10.147 22.667 22.667 22.667 0.733 0 1.333-0.6 1.333-1.333v-4.667c0-0.733-0.6-1.333-1.333-1.333zM16 4v13.333l4-4h8v-9.333h-12z"></path>
</symbol>
<symbol id="decline-sign" viewBox="0 0 32 32">
<path fill="#e8184a" style="fill: var(--color2, #e8184a)" d="M16 2.667c-7.367 0-13.333 5.967-13.333 13.333s5.967 13.333 13.333 13.333 13.333-5.967 13.333-13.333-5.967-13.333-13.333-13.333zM22.667 20.78l-1.887 1.887-4.78-4.78-4.78 4.78-1.887-1.887 4.78-4.78-4.78-4.78 1.887-1.887 4.78 4.78 4.78-4.78 1.887 1.887-4.78 4.78 4.78 4.78z"></path>
<path fill="#fff" style="fill: var(--color1, #fff)" d="M20.78 22.667l1.887-1.887-4.78-4.78 4.78-4.78-1.887-1.887-4.78 4.78-4.78-4.78-1.887 1.887 4.78 4.78-4.78 4.78 1.887 1.887 4.78-4.78 4.78 4.78z"></path>
</symbol>
<symbol id="facebook" viewBox="0 0 32 32">
<path fill="#a4afc1" style="fill: var(--color3, #a4afc1)" d="M12.928 17.664h-3.168c-0.512 0-0.672-0.192-0.672-0.672v-3.872c0-0.512 0.192-0.672 0.672-0.672h3.168v-2.816c0-1.28 0.224-2.496 0.864-3.616 0.672-1.152 1.632-1.92 2.848-2.368 0.8-0.288 1.6-0.416 2.464-0.416h3.136c0.448 0 0.64 0.192 0.64 0.64v3.648c0 0.448-0.192 0.64-0.64 0.64-0.864 0-1.728 0-2.592 0.032-0.864 0-1.312 0.416-1.312 1.312-0.032 0.96 0 1.888 0 2.88h3.712c0.512 0 0.704 0.192 0.704 0.704v3.872c0 0.512-0.16 0.672-0.704 0.672h-3.712v10.432c0 0.544-0.16 0.736-0.736 0.736h-4c-0.48 0-0.672-0.192-0.672-0.672v-10.464z"></path>
</symbol>
<symbol id="fav-work-proc" viewBox="0 0 32 32">
<path fill="#efefef" style="fill: var(--color4, #efefef)" d="M7.446 28.296c6.149 0 10.371 3.185 13.333 3.185s9.185-1.703 9.185-15.332c0-13.629-8.371-15.63-11.63-15.63-15.259 0-21.777 27.778-10.889 27.778z"></path>
<path fill="#a4afc1" style="fill: var(--color3, #a4afc1)" d="M6.556 3.778h0.889v1.778h-0.889v-1.777zM3.667 6.444h1.778v0.889h-1.778v-0.889z"></path>
<path fill="#2fdf84" style="fill: var(--color5, #2fdf84)" d="M6 15.778v7.556h2.444l1.777-6.566s-1.296-0.99-4.222-0.99z"></path>
<path fill="#2fdf84" style="fill: var(--color5, #2fdf84)" d="M23.778 20.445c-1.154 0-2.493 0.558-3.777 0.952v-0.383c-0.001-0.856-0.605-1.57-1.411-1.74l-0.012-0.002-8.56-1.751-1.325 4.818c1.698 0.8 6.071 2.773 8.196 2.773 2.666 0 9.111-3.556 9.111-3.556s-0.445-1.111-2.222-1.111z"></path>
<path fill="#f3f3f1" style="fill: var(--color6, #f3f3f1)" d="M26 16.111v-7.556h-2.445l-1.777 6.565s1.296 0.99 4.222 0.99z"></path>
<path fill="#f3f3f1" style="fill: var(--color6, #f3f3f1)" d="M8.222 11.444c1.154 0 2.493-0.558 3.778-0.952v0.383c0 0.856 0.605 1.571 1.411 1.74l0.012 0.002 8.56 1.751 1.325-4.818c-1.698-0.8-6.071-2.774-8.196-2.774-2.666 0-9.111 3.556-9.111 3.556s0.444 1.111 2.222 1.111z"></path>
<path fill="#00b871" style="fill: var(--color7, #00b871)" d="M6 15.778v7.556h2v-7.378c-0.556-0.104-1.215-0.178-2-0.178zM22 21.013v0.383c0.905-0.277 1.835-0.633 2.71-0.82-0.274-0.083-0.59-0.132-0.916-0.132-0.006 0-0.011 0-0.017 0h0.001c-0.564 0-1.174 0.134-1.8 0.317 0.012 0.082 0.022 0.166 0.022 0.251zM10.693 22.338l1.218-4.43-1.893-0.387-1.325 4.817c1.698 0.8 6.071 2.773 8.196 2.773 0.279 0 0.607-0.046 0.957-0.116-2.285-0.43-5.699-1.971-7.153-2.657z"></path>
<path fill="#d5dbe1" style="fill: var(--color8, #d5dbe1)" d="M23.778 15.121l1.778-6.565h-2l-1.777 6.565s1.296 0.99 4.222 0.99v-0.178c-1.519-0.285-2.222-0.813-2.222-0.813zM8 10.334s5.158-2.843 8.154-3.439c-0.383-0.072-0.738-0.117-1.043-0.117-2.667 0-9.111 3.556-9.111 3.556s0.444 1.111 2.222 1.111c0.341 0 0.7-0.053 1.067-0.132-0.999-0.29-1.29-0.979-1.29-0.979z"></path>
<path fill="#d5dbe1" style="fill: var(--color8, #d5dbe1)" d="M15.422 12.618c-0.817-0.172-1.422-0.886-1.422-1.742v-0.383c-0.656 0.201-1.325 0.444-1.978 0.634 0.105 0.733 0.657 1.339 1.4 1.491l8.56 1.751 0.107-0.387-6.667-1.364z"></path>
<path fill="#000" style="fill: var(--color9, #000)" d="M26 16.889c-3.116 0-4.567-1.082-4.627-1.128-0.16-0.123-0.262-0.315-0.262-0.53 0-0.062 0.008-0.122 0.024-0.179l-0.001 0.005 1.778-6.566c0.080-0.286 0.338-0.492 0.643-0.492 0 0 0 0 0 0h2.445c0.368 0 0.667 0.299 0.667 0.667v0 7.556c-0 0.368-0.299 0.667-0.667 0.667v0zM22.555 14.908c0.465 0.22 1.374 0.547 2.778 0.629v-6.203h-1.267l-1.51 5.574z"></path>
<path fill="#000" style="fill: var(--color9, #000)" d="M8.222 12.222c-2.204 0-2.816-1.467-2.841-1.531-0.030-0.073-0.048-0.159-0.048-0.248 0-0.25 0.138-0.468 0.342-0.581l0.003-0.002c0.269-0.149 6.627-3.638 9.433-3.638 2.141 0 6.232 1.777 8.48 2.836l-0.569 1.206c-3.652-1.722-6.537-2.709-7.911-2.709-1.803 0-5.895 1.947-8.039 3.070 0.247 0.142 0.615 0.263 1.15 0.263 0.78 0 1.745-0.321 2.678-0.633 1.034-0.345 2.103-0.7 3.099-0.7 1.874 0 4.346 0.892 4.45 0.929l-0.455 1.253c-0.023-0.009-2.357-0.849-3.995-0.849-0.78 0-1.745 0.321-2.678 0.633-1.034 0.345-2.102 0.7-3.1 0.7z"></path>
<path fill="#000" style="fill: var(--color9, #000)" d="M21.849 15.133l-8.56-1.751c-1.133-0.232-1.956-1.239-1.956-2.394v-0.4h1.333v0.4c0.002 0.534 0.379 0.98 0.881 1.088l0.007 0.001 8.56 1.751-0.267 1.305zM8.444 24h-2.444c-0.368-0-0.666-0.299-0.667-0.667v0-7.556c0-0.368 0.298-0.666 0.666-0.667h0c3.116 0 4.567 1.082 4.627 1.128 0.215 0.165 0.31 0.443 0.239 0.704l-1.777 6.566c-0.080 0.286-0.338 0.491-0.643 0.491-0 0-0 0-0.001 0h0zM6.667 22.667h1.268l1.509-5.574c-0.465-0.22-1.374-0.547-2.777-0.628v6.203h0.001z"></path>
<path fill="#000" style="fill: var(--color9, #000)" d="M16.889 25.778c-2.141 0-6.232-1.777-8.48-2.837l0.569-1.206c3.653 1.723 6.537 2.71 7.911 2.71 1.803 0 5.895-1.947 8.039-3.070-0.247-0.142-0.615-0.263-1.15-0.263-0.781 0-1.745 0.321-2.678 0.633-1.034 0.345-2.103 0.7-3.099 0.7-1.874 0-4.346-0.892-4.45-0.929l0.455-1.253c0.023 0.009 2.358 0.849 3.995 0.849 0.78 0 1.745-0.321 2.678-0.633 1.034-0.345 2.103-0.701 3.099-0.701 2.204 0 2.816 1.468 2.841 1.53 0.030 0.073 0.048 0.159 0.048 0.248 0 0.25-0.138 0.468-0.342 0.581l-0.003 0.002c-0.268 0.148-6.627 3.637-9.433 3.637z"></path>
<path fill="#000" style="fill: var(--color9, #000)" d="M20.667 21.413h-1.334v-0.4c-0.002-0.534-0.379-0.98-0.881-1.088l-0.007-0.001-2.419-0.497 0.27-1.306 2.418 0.498c1.132 0.232 1.955 1.239 1.955 2.395v0.401h-0.001zM9.892 18.18l0.267-1.308 4.409 0.9-0.267 1.308-4.41-0.9z"></path>
</symbol>
<symbol id="international-clients" viewBox="0 0 32 32">
<path fill="#efefef" style="fill: var(--color4, #efefef)" d="M7.446 3.704c6.149 0 10.371-3.185 13.333-3.185s9.185 1.703 9.185 15.332c0 13.63-8.371 15.63-11.63 15.63-15.259 0.001-21.777-27.777-10.889-27.777z"></path>
<path fill="#a4afc1" style="fill: var(--color3, #a4afc1)" d="M23.913 6.769l0.629-0.628 1.257 1.257-0.628 0.629-1.257-1.257zM27.527 10.383l0.628-0.629 1.257 1.257-0.628 0.629-1.257-1.257zM27.371 7.397l1.257-1.257 0.628 0.628-1.257 1.257-0.628-0.629z"></path>
<path fill="#f3f3f1" style="fill: var(--color6, #f3f3f1)" d="M14.222 22.445c4.541 0 8.222-3.681 8.222-8.223s-3.681-8.222-8.223-8.222c-4.54 0-8.222 3.681-8.222 8.222s3.681 8.222 8.222 8.222z"></path>
<path fill="#f3f3f1" style="fill: var(--color6, #f3f3f1)" d="M22.222 20.667c0.614 0 1.111-0.497 1.111-1.111s-0.497-1.111-1.111-1.111v0c-0.614 0-1.111 0.497-1.111 1.111s0.497 1.111 1.111 1.111v0z"></path>
<path fill="#2fdf84" style="fill: var(--color5, #2fdf84)" d="M13.68 9.431v0.774c0 1.36-0.951 2.524-2.276 2.809-0.515 0.107-0.96 0.391-1.28 0.774-0.32 0.391-0.498 0.871-0.507 1.404-0.008 0.584-0.247 1.111-0.631 1.493l-0 0c-0.391 0.382-0.916 0.622-1.511 0.622h-0.871c-0.382-0.907-0.605-1.961-0.605-3.067 0-0.006 0-0.012 0-0.018v0.001c0-3.804 2.587-7.013 6.098-7.947 0.963 0.727 1.58 1.869 1.582 3.155v0zM22.062 11.725l-1.867 0.231c-0.116 0.009-0.222 0.018-0.329 0.018-0.924 0-1.787-0.489-2.276-1.289-0.756-1.262-0.942-2.782-0.533-4.187 2.373 0.871 4.231 2.809 5.005 5.227zM24.445 22.5v-1.111c0-0.982-0.796-1.777-1.777-1.777-0 0-0 0-0 0h-2.223c-0.982 0-1.777 0.796-1.777 1.777v0 1.111h5.777z"></path>
<path fill="#00b871" style="fill: var(--color7, #00b871)" d="M22.445 16.277c0-0.169 0.044-0.324 0.111-0.467-0.177-0.377-0.555-0.643-1-0.643-0.614 0-1.111 0.498-1.111 1.111v0c0 0.613 0.498 1.111 1.111 1.111h0c0.445 0 0.823-0.266 1-0.643-0.067-0.143-0.111-0.299-0.111-0.468zM22.445 19.611h-2c-0 0-0 0-0 0-0.982 0-1.777 0.796-1.777 1.777 0 0 0 0 0 0v0 1.111h2v-1.111c0-0.982 0.796-1.777 1.777-1.777v0z"></path>
<path fill="#000" style="fill: var(--color9, #000)" d="M21.555 18.055c-0.981-0.001-1.776-0.796-1.777-1.777v-0c0.001-0.981 0.796-1.777 1.777-1.778h0c0.982 0.001 1.777 0.796 1.778 1.778v0c-0.001 0.982-0.796 1.777-1.778 1.778h-0zM21.555 15.833c-0.245 0-0.444 0.199-0.444 0.445s0.199 0.445 0.445 0.445c0 0 0 0 0 0v0c0.245-0 0.444-0.199 0.444-0.445s-0.199-0.445-0.445-0.445c-0 0-0 0-0 0v0zM25.111 22.5h-1.333v-1.111c-0.001-0.613-0.498-1.11-1.111-1.111h-2.223c-0.613 0.001-1.11 0.498-1.111 1.111v1.111h-1.333v-1.111c0-1.349 1.096-2.445 2.445-2.445h2.222c1.348 0 2.444 1.096 2.444 2.445v1.111z"></path>
<path fill="#d5dbe1" style="fill: var(--color8, #d5dbe1)" d="M8 14.222c0-4.202 3.154-7.661 7.222-8.155-0.298-0.040-0.645-0.065-0.997-0.067h-0.003c-4.541 0-8.222 3.681-8.222 8.222s3.681 8.222 8.222 8.222c0.355-0.002 0.702-0.026 1.042-0.071l-0.042 0.005c-4.069-0.494-7.222-3.954-7.222-8.155z"></path>
<path fill="#00b871" style="fill: var(--color7, #00b871)" d="M8 14.222c0-3.267 1.909-6.089 4.67-7.414-0.172-0.194-0.361-0.375-0.572-0.532-3.511 0.933-6.098 4.142-6.098 7.947 0 1.093 0.213 2.133 0.604 3.084h0.871c0.38 0 0.726-0.106 1.031-0.276-0.32-0.834-0.506-1.8-0.507-2.808v-0zM19.591 10.684c-0.587-0.981-0.826-2.117-0.714-3.235-0.562-0.388-1.169-0.713-1.82-0.952-0.409 1.405-0.222 2.925 0.533 4.187 0.489 0.8 1.351 1.289 2.276 1.289 0.107 0 0.213-0.009 0.329-0.018l0.897-0.111c-0.613-0.19-1.154-0.591-1.502-1.16z"></path>
<path fill="#000" style="fill: var(--color9, #000)" d="M7.476 17.973h-0.871v-1.333h0.871c0.815 0 1.463-0.641 1.476-1.46 0.023-1.383 0.976-2.542 2.317-2.821 1.2-0.257 1.588-1.252 1.714-1.823 0.301-1.379-0.239-2.947-1.284-3.728l0.798-1.067c1.467 1.097 2.203 3.186 1.787 5.081-0.329 1.503-1.327 2.54-2.74 2.842-0.599 0.124-1.245 0.658-1.259 1.537-0.023 1.528-1.284 2.771-2.809 2.771zM19.946 12.63c-1.091 0-2.006-0.436-2.685-1.272-1.019-1.254-1.357-3.283-0.843-5.048l1.279 0.373c-0.385 1.32-0.133 2.933 0.599 3.833 0.463 0.572 1.085 0.83 1.847 0.773l1.836-0.227 0.163 1.322-1.867 0.231c-0.11 0.010-0.221 0.014-0.33 0.014z"></path>
<path fill="#000" style="fill: var(--color9, #000)" d="M14.222 23.111c-4.902 0-8.889-3.988-8.889-8.889s3.987-8.889 8.889-8.889c4.387 0 8.076 3.136 8.773 7.459l-1.316 0.211c-0.593-3.672-3.73-6.337-7.458-6.337-4.166 0-7.556 3.389-7.556 7.556s3.389 7.555 7.556 7.555c0.004 0 0.008 0 0.013 0 0.589 0 1.162-0.069 1.711-0.199l-0.050 0.010 0.297 1.3c-0.592 0.14-1.272 0.221-1.971 0.221h-0z"></path>
</symbol>
<symbol id="linkedin" viewBox="0 0 32 32">
<path fill="#a4afc1" style="fill: var(--color3, #a4afc1)" d="M28.8 28.8v-9.376c0-4.608-0.992-8.128-6.368-8.128-2.592 0-4.32 1.408-5.024 2.752h-0.064v-2.336h-5.088v17.088h5.312v-8.48c0-2.24 0.416-4.384 3.168-4.384 2.72 0 2.752 2.528 2.752 4.512v8.32h5.312v0.032zM3.616 11.712h5.312v17.088h-5.312v-17.088zM6.272 3.2c-1.696 0-3.072 1.376-3.072 3.072 0 0.001 0 0.003 0 0.004 0 1.702 1.372 3.084 3.071 3.1h0.002c1.7-0.016 3.072-1.398 3.072-3.1 0-0.001 0-0.003 0-0.004v0c0-1.696-1.376-3.072-3.072-3.072z"></path>
</symbol>
<symbol id="logo" viewBox="0 0 32 32">
<path fill="#18e8a4" style="fill: var(--color10, #18e8a4)" d="M1.231 15.13l14.567-14.622 14.567 14.624-14.567 14.623-14.567-14.625z"></path>
<path fill="#020213" style="fill: var(--color11, #020213)" d="M26.316 15.083l-1.995-2.010-7.057 7.114v-4.016l5.066-5.104-1.991-2.006-3.074 3.097v-5.608h-2.818v5.608l-3.074-3.097-1.995 2.006 5.069 5.104v15.263h2.818v-7.232l9.052-9.119z"></path>
</symbol>
<symbol id="not-all-about-work" viewBox="0 0 32 32">
<path fill="#efefef" style="fill: var(--color4, #efefef)" d="M24.371 3.479c-6.147 0.115-10.428-2.991-13.39-2.935s-9.152 1.875-8.897 15.502c0.255 13.627 8.662 15.47 11.92 15.41 15.256-0.285 21.254-28.18 10.367-27.977z"></path>
<path fill="#a4afc1" style="fill: var(--color3, #a4afc1)" d="M4.944 7.17h0.889v1.777h-0.889v-1.777zM4.944 12.281h0.889v1.778h-0.889v-1.778zM1.833 10.059h1.778v0.889h-1.778v-0.889zM26.666 22.161c-0.736-0.001-1.332-0.597-1.333-1.333v-0c0.001-0.736 0.597-1.332 1.333-1.333h0c0.736 0.001 1.332 0.597 1.334 1.333v0c-0.001 0.736-0.597 1.333-1.333 1.334h-0zM26.666 20.383c-0.245 0-0.444 0.199-0.444 0.445s0.199 0.445 0.445 0.445c0 0 0 0 0 0v0c0.245-0 0.444-0.199 0.444-0.445s-0.199-0.445-0.445-0.445c-0 0-0 0-0 0v0z"></path>
<path fill="#2fdf84" style="fill: var(--color5, #2fdf84)" d="M21.218 13.219c0.076-2.391 4.782-7.174 4.782-7.174-10 0-11.413 4.347-11.413 4.347-0.834-2.174 0.543-3.478 0.543-3.478s-3.438 0.027-5.652 2.227c-2.246 2.229-1.304 5.599-1.304 5.599s1.131 3.405 4.734 5.106c4.585 2.163 8.744 0.547 8.744 0.547 3.913-1.739 4.348-8.261 4.348-8.261-1.34 1.304-4.781 1.087-4.781 1.087z"></path>
<path fill="#00b871" style="fill: var(--color7, #00b871)" d="M16.809 10.614s1.186-3.568 8.868-4.232c0.197-0.209 0.323-0.338 0.323-0.338-4.294 0-6.995 0.803-8.687 1.718-0.391 0.211-0.674 0.582-0.738 1.022-0.074 0.508-0.038 1.123 0.233 1.83zM24.667 13.435c0.706-0.036 1.282-0.599 1.333-1.304-0.589 0.573-1.585 0.852-2.515 0.986-0.020 0.11-0.042 0.223-0.046 0.324 0.001 0 0.517 0.031 1.227-0.005zM15.131 20.069c-3.293-1.555-4.522-4.534-4.708-5.034-0.016-0.040-0.031-0.089-0.044-0.139l-0.002-0.008c-0.122-0.509-0.726-3.491 1.323-5.524 0.741-0.735 1.617-1.225 2.456-1.554 0.294-0.118 0.535-0.314 0.705-0.563l0.003-0.005c0.146-0.214 0.265-0.326 0.265-0.326s-3.438 0.027-5.652 2.226c-2.049 2.033-1.445 5.014-1.323 5.524 0.013 0.054 0.026 0.096 0.045 0.148 0.187 0.501 1.414 3.479 4.708 5.034 1.806 0.852 3.542 1.114 4.988 1.122-1.043-0.204-1.968-0.515-2.834-0.931l0.070 0.030z"></path>
<path fill="#f3f3f1" style="fill: var(--color6, #f3f3f1)" d="M13.391 23.519l-4.568 2.526 0.873-5.349-3.696-3.788 5.107-0.78 2.284-4.866 2.284 4.866 5.107 0.78-3.695 3.788 0.872 5.349-4.568-2.526z"></path>
<path fill="#d5dbe1" style="fill: var(--color8, #d5dbe1)" d="M13.107 15.461l1.127-2.402-0.844-1.796-2.101 4.476 1.818-0.277zM15.391 22.852l-1.603 0.886 4.171 2.306-0.317-1.948-2.251-1.244zM10.902 24.895l0.794-4.866-3.389-3.474-2.307 0.353 3.696 3.788-0.873 5.348 2.079-1.149z"></path>
<path fill="#000" style="fill: var(--color9, #000)" d="M17.959 26.711c-0.111 0-0.223-0.028-0.323-0.084l-4.245-2.346-4.245 2.346c-0.093 0.052-0.204 0.083-0.323 0.083-0.144 0-0.277-0.046-0.386-0.123l0.002 0.001c-0.172-0.122-0.282-0.321-0.282-0.545 0-0.038 0.003-0.075 0.009-0.111l-0.001 0.004 0.818-5.016-3.46-3.547c-0.117-0.12-0.19-0.284-0.19-0.466 0-0.333 0.244-0.608 0.562-0.658l0.004-0 4.756-0.727 2.133-4.544c0.109-0.228 0.338-0.383 0.604-0.383s0.494 0.155 0.602 0.379l0.002 0.004 2.132 4.544 4.756 0.727c0.247 0.038 0.453 0.21 0.532 0.447s0.019 0.498-0.155 0.677l-3.46 3.547 0.818 5.016c0.006 0.032 0.009 0.069 0.009 0.107 0 0.368-0.298 0.666-0.665 0.667h-0zM7.383 17.372l2.789 2.859c0.149 0.151 0.215 0.364 0.181 0.573l-0.651 3.993 3.367-1.861c0.093-0.052 0.204-0.083 0.323-0.083s0.23 0.031 0.326 0.085l-0.003-0.002 3.366 1.861-0.652-3.993c-0.005-0.032-0.009-0.069-0.009-0.107 0-0.182 0.073-0.346 0.19-0.467l2.789-2.859-3.825-0.585c-0.223-0.035-0.407-0.177-0.5-0.371l-0.002-0.004-1.681-3.581-1.681 3.581c-0.094 0.198-0.278 0.34-0.498 0.375l-0.004 0-3.826 0.585z"></path>
<path fill="#000" style="fill: var(--color9, #000)" d="M21.924 21.002l-0.541-1.218c2.485-1.104 3.433-4.497 3.774-6.389-1.627 0.611-3.687 0.508-3.98 0.489-0.349-0.023-0.624-0.312-0.624-0.665 0-0.007 0-0.015 0-0.022l-0 0.001c0.059-1.882 2.417-4.807 3.88-6.447-7.862 0.404-9.198 3.813-9.21 3.849-0.088 0.264-0.329 0.453-0.616 0.46l-0.001 0c-0.296 0.014-0.538-0.164-0.64-0.428-0.462-1.204-0.348-2.19-0.091-2.904-1.111 0.205-2.731 0.7-3.926 1.886-1.934 1.919-1.139 4.918-1.132 4.949l-1.284 0.357c-0.043-0.153-1.019-3.775 1.476-6.252 2.38-2.363 5.966-2.419 6.117-2.421 0.266 0.018 0.521 0.163 0.624 0.418 0.030 0.074 0.048 0.159 0.048 0.249 0 0.191-0.080 0.363-0.208 0.484l-0 0c-0.024 0.024-0.45 0.457-0.571 1.222 1.381-1.405 4.439-3.242 10.981-3.242 0 0 0.001 0 0.001 0 0.368 0 0.666 0.298 0.666 0.666 0 0.182-0.073 0.348-0.192 0.468l0-0c-1.526 1.552-3.849 4.338-4.447 6.053 1.114-0.022 2.786-0.21 3.506-0.911 0.12-0.117 0.283-0.189 0.464-0.189 0.102 0 0.198 0.023 0.284 0.064l-0.004-0.002c0.23 0.108 0.387 0.338 0.387 0.605 0 0.016-0.001 0.031-0.002 0.046l0-0.002c-0.018 0.283-0.51 6.945-4.741 8.826z"></path>
</symbol>
<symbol id="ok-sign" viewBox="0 0 32 32">
<path fill="#18e8a4" style="fill: var(--color10, #18e8a4)" d="M16 0c-8.832 0-16 7.168-16 16s7.168 16 16 16 16-7.168 16-16-7.168-16-16-16zM12.8 24l-8-8 2.256-2.256 5.744 5.728 12.144-12.144 2.256 2.272-14.4 14.4z"></path>
</symbol>
<symbol id="stim-proj" viewBox="0 0 32 32">
<path fill="#efefef" style="fill: var(--color4, #efefef)" d="M10.251 30.935c5.907-1.706 10.847 0.183 13.693-0.639s8.352-4.185 4.571-17.28c-3.782-13.095-12.377-12.693-15.508-11.789-14.661 4.234-13.217 32.73-2.755 29.708z"></path>
<path fill="#a4afc1" style="fill: var(--color3, #a4afc1)" d="M7.974 5.697l1.257-1.257 0.629 0.628-1.257 1.257-0.629-0.628zM4.36 9.31l1.257-1.257 0.628 0.629-1.257 1.257-0.628-0.629zM4.361 4.911l0.628-0.628 1.257 1.257-0.629 0.628-1.257-1.257zM26.889 29.486c-0.736-0.001-1.332-0.597-1.334-1.333v-0c0.001-0.736 0.597-1.333 1.333-1.334h0c0.736 0.001 1.332 0.597 1.333 1.333v0c-0.001 0.736-0.597 1.332-1.333 1.333h-0zM26.889 27.709c-0.244 0-0.445 0.2-0.445 0.445s0.2 0.444 0.445 0.444c0.244 0 0.444-0.2 0.444-0.444s-0.2-0.445-0.444-0.445z"></path>
<path fill="#f3f3f1" style="fill: var(--color6, #f3f3f1)" d="M16 8.222c0.614 0 1.111-0.498 1.111-1.111s-0.498-1.111-1.111-1.111v0c-0.614 0-1.111 0.498-1.111 1.111s0.498 1.111 1.111 1.111v0zM22.285 10.826c0.614 0 1.111-0.498 1.111-1.111s-0.498-1.111-1.111-1.111v0c-0.614 0-1.111 0.498-1.111 1.111s0.498 1.111 1.111 1.111v0z"></path>
<path fill="#2fdf84" style="fill: var(--color5, #2fdf84)" d="M21.342 10.658v0z"></path>
<path fill="#f3f3f1" style="fill: var(--color6, #f3f3f1)" d="M24.889 17.111c0.614 0 1.111-0.498 1.111-1.111s-0.498-1.111-1.111-1.111v0c-0.614 0-1.111 0.498-1.111 1.111s0.498 1.111 1.111 1.111v0zM22.285 23.396c0.614 0 1.111-0.498 1.111-1.111s-0.498-1.111-1.111-1.111v0c-0.614 0-1.111 0.498-1.111 1.111s0.498 1.111 1.111 1.111v0z"></path>
<path fill="#2fdf84" style="fill: var(--color5, #2fdf84)" d="M21.342 21.342l-0-0z"></path>
<path fill="#f3f3f1" style="fill: var(--color6, #f3f3f1)" d="M16 26c0.614 0 1.111-0.498 1.111-1.111s-0.498-1.111-1.111-1.111v0c-0.614 0-1.111 0.498-1.111 1.111s0.498 1.111 1.111 1.111v0zM9.714 23.396c0.614 0 1.111-0.498 1.111-1.111s-0.498-1.111-1.111-1.111v0c-0.614 0-1.111 0.498-1.111 1.111s0.498 1.111 1.111 1.111v0z"></path>
<path fill="#2fdf84" style="fill: var(--color5, #2fdf84)" d="M11.467 20.533l-0 0z"></path>
<path fill="#f3f3f1" style="fill: var(--color6, #f3f3f1)" d="M7.111 17.111c0.614 0 1.111-0.498 1.111-1.111s-0.498-1.111-1.111-1.111v0c-0.614 0-1.111 0.498-1.111 1.111s0.498 1.111 1.111 1.111v0zM9.714 10.826c0.614 0 1.111-0.498 1.111-1.111s-0.498-1.111-1.111-1.111v0c-0.614 0-1.111 0.498-1.111 1.111s0.498 1.111 1.111 1.111v0z"></path>
<path fill="#2fdf84" style="fill: var(--color5, #2fdf84)" d="M12.871 12.871v0zM16.012 18.481l-2.331 1.297 0.436-2.732-1.895-1.927 2.609-0.407 1.159-2.489 1.176 2.481 2.611 0.389-1.883 1.94 0.456 2.729-2.34-1.281z"></path>
<path fill="#00b871" style="fill: var(--color7, #00b871)" d="M15.632 18.692l0.263-1.646-1.895-1.927 2.609-0.407 0.278-0.598-0.897-1.891-1.159 2.489-2.609 0.407 1.895 1.927-0.436 2.733 1.951-1.086z"></path>
<path fill="#000" style="fill: var(--color9, #000)" d="M16 8.889c-0.981-0.001-1.777-0.796-1.778-1.778v-0c0.001-0.981 0.796-1.777 1.778-1.778h0c0.981 0.001 1.777 0.796 1.778 1.777v0c-0.001 0.982-0.796 1.777-1.778 1.778h-0zM16 6.667c-0.245 0-0.444 0.2-0.444 0.445s0.2 0.444 0.444 0.444 0.445-0.2 0.445-0.444c0-0.245-0.2-0.444-0.445-0.444z"></path>
<path fill="#000" style="fill: var(--color9, #000)" d="M15.334 8.444h1.333v1.271h-1.334v-1.271zM22.285 11.492c-0.455 0-0.91-0.173-1.257-0.52-0.694-0.693-0.694-1.821 0-2.514 0.692-0.692 1.821-0.692 2.514 0s0.693 1.822 0 2.514c-0.321 0.321-0.765 0.52-1.255 0.52-0.001 0-0.001 0-0.002 0h0zM22.285 9.27c-0.245 0-0.444 0.199-0.444 0.445 0 0.122 0.049 0.233 0.129 0.314l-0-0c0.081 0.080 0.192 0.13 0.314 0.13s0.234-0.050 0.314-0.13v0c0.080-0.081 0.13-0.192 0.13-0.314s-0.050-0.234-0.13-0.314v0c-0.086-0.086-0.2-0.13-0.314-0.13z"></path>
<path fill="#000" style="fill: var(--color9, #000)" d="M18.672 12.383l2.195-2.195 0.943 0.943-2.195 2.195-0.942-0.943zM24.889 17.777c-0.981-0.001-1.776-0.796-1.777-1.777v-0c0.001-0.981 0.796-1.777 1.777-1.778h0c0.981 0.001 1.777 0.796 1.778 1.777v0c-0.001 0.982-0.796 1.777-1.778 1.778h-0zM24.889 15.556c-0.244 0-0.444 0.2-0.444 0.444s0.2 0.445 0.444 0.445c0.244 0 0.445-0.2 0.445-0.445s-0.2-0.444-0.445-0.444z"></path>
<path fill="#000" style="fill: var(--color9, #000)" d="M21.769 15.334h1.787v1.333h-1.787v-1.334zM22.285 24.063c-0.455 0-0.91-0.174-1.257-0.52-0.694-0.692-0.694-1.822 0-2.514 0.692-0.692 1.821-0.692 2.514 0s0.693 1.821 0 2.514c-0.321 0.321-0.764 0.52-1.253 0.52-0.001 0-0.003 0-0.004 0h0zM22.285 21.841c-0.114 0-0.227 0.044-0.314 0.13-0.080 0.080-0.13 0.192-0.13 0.314s0.050 0.234 0.13 0.314v0c0.080 0.080 0.192 0.13 0.314 0.13s0.234-0.050 0.314-0.13v0c0.080-0.081 0.13-0.192 0.13-0.314s-0.050-0.234-0.13-0.314v0c-0.086-0.086-0.2-0.13-0.314-0.13z"></path>
<path fill="#000" style="fill: var(--color9, #000)" d="M20.102 21.049l0.943-0.943 0.764 0.764-0.943 0.943-0.764-0.764zM16 26.667c-0.981-0.001-1.777-0.797-1.778-1.778v-0c0.001-0.981 0.796-1.776 1.778-1.777h0c0.981 0.001 1.777 0.796 1.778 1.777v0c-0.001 0.981-0.796 1.777-1.778 1.778h-0zM16 24.444c-0.245 0-0.444 0.2-0.444 0.445s0.2 0.445 0.444 0.445 0.445-0.2 0.445-0.445c0-0.244-0.2-0.444-0.445-0.444z"></path>
<path fill="#000" style="fill: var(--color9, #000)" d="M15.334 20.889h1.333v2.666h-1.334v-2.666zM9.715 24.063c-0.455 0-0.91-0.174-1.257-0.52-0.693-0.692-0.693-1.822 0-2.514s1.822-0.692 2.514 0c0.694 0.692 0.694 1.821 0 2.514-0.321 0.321-0.765 0.52-1.255 0.52-0.001 0-0.002 0-0.002 0h0zM9.715 21.841c-0.114 0-0.227 0.044-0.315 0.13-0.080 0.081-0.13 0.192-0.13 0.314s0.050 0.234 0.13 0.314v0c0.081 0.080 0.192 0.13 0.314 0.13s0.234-0.050 0.314-0.13v0c0.080-0.081 0.13-0.192 0.13-0.314s-0.050-0.234-0.13-0.314v0c-0.086-0.086-0.2-0.13-0.314-0.13z"></path>
<path fill="#000" style="fill: var(--color9, #000)" d="M10.183 20.869l0.809-0.809 0.943 0.943-0.809 0.809-0.943-0.943zM7.111 17.777c-0.981-0.001-1.777-0.796-1.778-1.777v-0c0.001-0.981 0.796-1.777 1.777-1.778h0c0.981 0.001 1.777 0.796 1.778 1.777v0c-0.001 0.982-0.796 1.777-1.778 1.778h-0zM7.111 15.556c-0.245 0-0.444 0.2-0.444 0.444s0.2 0.445 0.444 0.445c0.244 0 0.444-0.2 0.444-0.445s-0.2-0.444-0.444-0.444z"></path>
<path fill="#000" style="fill: var(--color9, #000)" d="M8.444 15.334h1.76v1.333h-1.76v-1.334zM9.715 11.492c-0.455 0-0.91-0.173-1.257-0.52-0.693-0.693-0.693-1.821 0-2.514s1.822-0.692 2.514 0c0.694 0.693 0.694 1.822 0 2.514-0.322 0.321-0.766 0.52-1.256 0.52-0 0-0 0-0.001 0h0zM9.715 9.27c-0.245 0.001-0.444 0.2-0.444 0.445 0 0.122 0.049 0.233 0.129 0.313l-0-0c0.081 0.080 0.192 0.13 0.314 0.13s0.234-0.050 0.314-0.13v0c0.080-0.081 0.13-0.192 0.13-0.314s-0.050-0.234-0.13-0.314v0c-0.086-0.086-0.2-0.13-0.314-0.13z"></path>
<path fill="#000" style="fill: var(--color9, #000)" d="M10.184 11.129l0.943-0.943 2.214 2.214-0.943 0.943-2.214-2.214zM13.682 20.445c-0 0-0 0-0 0-0.368 0-0.667-0.299-0.667-0.667 0-0.037 0.003-0.073 0.009-0.109l-0.001 0.004 0.383-2.4-1.659-1.686c-0.119-0.12-0.192-0.286-0.192-0.468 0-0.332 0.243-0.608 0.561-0.659l0.004-0.001 2.258-0.352 1.009-2.166c0.108-0.229 0.337-0.385 0.602-0.386h0.003c0.258 0 0.492 0.149 0.603 0.382l1.023 2.16 2.259 0.336c0.324 0.050 0.569 0.326 0.569 0.66 0 0.181-0.072 0.344-0.188 0.465l0-0-1.648 1.699 0.4 2.398c0.006 0.033 0.009 0.070 0.009 0.109 0 0.224-0.11 0.421-0.279 0.542l-0.002 0.001c-0.107 0.077-0.242 0.123-0.387 0.123-0.117 0-0.228-0.030-0.324-0.083l0.003 0.002-2.017-1.105-2.008 1.119c-0.093 0.053-0.204 0.084-0.323 0.084-0 0-0.001 0-0.001 0h0zM13.609 15.576l0.984 1.001c0.149 0.151 0.217 0.363 0.183 0.573l-0.22 1.378 1.13-0.629c0.094-0.053 0.206-0.085 0.325-0.085 0.117 0 0.228 0.030 0.324 0.084l-0.003-0.002 1.136 0.622-0.23-1.376c-0.006-0.033-0.009-0.070-0.009-0.109 0-0.181 0.072-0.345 0.189-0.465l-0 0 0.977-1.009-1.327-0.197c-0.224-0.035-0.409-0.176-0.502-0.37l-0.002-0.004-0.568-1.199-0.56 1.203c-0.094 0.199-0.278 0.342-0.497 0.377l-0.004 0.001-1.325 0.207z"></path>
</symbol>
<symbol id="subtract" viewBox="0 0 32 32">
<path fill="#18e8a4" style="fill: var(--color10, #18e8a4)" d="M19.398 1.478c-0.9-0.912-2.149-1.478-3.531-1.478s-2.632 0.565-3.531 1.477l-0.001 0.001-10.594 10.702c-1.95 1.97-1.95 5.164 0 7.134l10.594 10.703c0.9 0.913 2.149 1.478 3.531 1.478s2.632-0.565 3.531-1.477l0.001-0.001 4.48-4.526-3.229-3.219c-1.254 0.868-2.65 1.302-4.191 1.302-0.006 0-0.014 0-0.021 0-1.030 0-2.011-0.214-2.898-0.601l0.047 0.018c-0.914-0.389-1.702-0.914-2.364-1.575s-1.187-1.45-1.576-2.364c-0.369-0.841-0.584-1.822-0.584-2.853 0-0.007 0-0.014 0-0.021v0.001c0-1.001 0.194-1.96 0.584-2.873s0.914-1.702 1.576-2.364c0.662-0.661 1.449-1.187 2.364-1.575s1.872-0.584 2.873-0.584 1.959 0.194 2.872 0.584c0.914 0.388 1.702 0.914 2.364 1.575s1.187 1.449 1.576 2.364c0.389 0.914 0.584 1.872 0.584 2.873 0 1.54-0.435 2.938-1.303 4.191l3.214 3.214 4.227-4.27c1.95-1.97 1.95-5.165 0-7.135l-10.594-10.702zM21.164 16.179c0 1.296-0.462 2.406-1.387 3.331-0.917 0.917-2.024 1.376-3.319 1.376s-2.404-0.461-3.325-1.382c-0.921-0.92-1.381-2.029-1.381-3.324s0.46-2.404 1.381-3.325c0.921-0.92 2.029-1.381 3.325-1.381s2.403 0.461 3.324 1.381c0.921 0.921 1.382 2.029 1.382 3.325z"></path>
</symbol>
<symbol id="twitter" viewBox="0 0 32 32">
<path fill="#a4afc1" style="fill: var(--color3, #a4afc1)" d="M28.768 8.064c-0.96 0.416-1.952 0.704-3.008 0.832 1.094-0.65 1.913-1.666 2.294-2.876l0.010-0.036c-0.959 0.571-2.072 1.014-3.256 1.267l-0.073 0.013c-0.961-1.026-2.324-1.665-3.836-1.665-2.899 0-5.25 2.35-5.252 5.249v0c0 0.416 0.032 0.8 0.128 1.184-4.352-0.192-8.192-2.304-10.784-5.472-1.856 3.328 0.224 6.080 1.6 7.008-0.872-0.016-1.686-0.252-2.393-0.653l0.025 0.013c0 2.592 1.824 4.736 4.192 5.216-0.512 0.16-1.664 0.256-2.368 0.096 0.672 2.080 2.624 3.616 4.896 3.648-1.792 1.408-4.416 2.528-7.776 2.176 2.268 1.485 5.047 2.368 8.031 2.368 0.011 0 0.023 0 0.034-0h-0.002c9.664 0 14.912-8 14.912-14.912 0-0.224 0-0.448-0.032-0.672 1.088-0.8 1.984-1.728 2.656-2.784z"></path>
</symbol>
<symbol id="working-remotely" viewBox="0 0 32 32">
<path fill="#efefef" style="fill: var(--color4, #efefef)" d="M7.446 3.704c6.149 0 10.371-3.185 13.333-3.185s9.185 1.703 9.185 15.332c0 13.63-8.371 15.63-11.629 15.63-15.26 0.001-21.778-27.777-10.889-27.777z"></path>
<path fill="#a4afc1" style="fill: var(--color3, #a4afc1)" d="M25.333 11.778c-0.736-0.001-1.332-0.597-1.333-1.333v-0c0.001-0.736 0.597-1.332 1.333-1.333h0c0.736 0.001 1.333 0.597 1.334 1.333v0c-0.001 0.736-0.597 1.332-1.333 1.333h-0zM25.333 10c-0.244 0-0.444 0.2-0.444 0.444s0.2 0.444 0.444 0.444c0.244 0 0.445-0.2 0.445-0.444s-0.2-0.444-0.445-0.444z"></path>
<path fill="#f3f3f1" style="fill: var(--color6, #f3f3f1)" d="M23.191 14.124l-2.524-2.409v-4.827h-2.667v2.284l-3.333-3.173-8.524 8.124c-0.089 0.080-0.142 0.196-0.142 0.32 0 0.001-0 0.003-0 0.005 0 0.243 0.197 0.44 0.44 0.44 0.002 0 0.003 0 0.005-0h2.222v6.222c0 0.736 0.597 1.333 1.333 1.334h9.778c0.491-0 0.889-0.398 0.889-0.889v0-6.666h2.222c0.001 0 0.003 0 0.004 0 0.243 0 0.44-0.197 0.44-0.44 0-0.002 0-0.003-0-0.005v0c0-0.124-0.053-0.24-0.142-0.32z"></path>
<path fill="#2fdf84" style="fill: var(--color5, #2fdf84)" d="M18 26h-0.445c-0.491-0-0.889-0.398-0.889-0.889v0-4c0-0.491 0.398-0.888 0.889-0.889h0.445c0.491 0 0.889 0.398 0.889 0.889v4c0 0.489-0.4 0.889-0.889 0.889z"></path>
<path fill="#2fdf84" style="fill: var(--color5, #2fdf84)" d="M18.862 20.524c0.498-0.311 1.751-1.209 1.751-2.373 0-1.040 0.436-1.467 0.845-1.467 0.418 0 1.040 0.631 1.040 1.875 0 1.040-0.418 1.662-0.418 1.662h2.222c0.951 0 1.698 0.782 1.698 1.698 0 0.24-0.489 2.658-0.498 2.658-0.133 0.818-0.889 1.422-1.724 1.422h-0.453c-2.382 0-3.715-0.613-4.213-0.898l-0.223 0.009-0.026-4.587z"></path>
<path fill="#d5dbe1" style="fill: var(--color8, #d5dbe1)" d="M20 9.173v-2.284h-2v0.38l2 1.904zM10.667 21.111v-6.223h-2v6.223c0 0.736 0.597 1.333 1.333 1.333h2c-0.736-0-1.333-0.597-1.333-1.333v-0zM8 14.444c0-0.124 0.053-0.24 0.142-0.32l7.525-7.171-1.001-0.953-8.524 8.124c-0.089 0.080-0.142 0.195-0.142 0.32 0 0.001-0 0.003-0 0.005 0 0.243 0.197 0.44 0.44 0.44 0.002 0 0.003 0 0.005-0h2c-0.001 0-0.003 0-0.005 0-0.243 0-0.44-0.197-0.44-0.44 0-0.002 0-0.003 0-0.005v0z"></path>
<path fill="#00b871" style="fill: var(--color7, #00b871)" d="M21.111 25.102l-0.223 0.009-0.026-4.587c0.406-0.254 1.305-0.901 1.626-1.762 0.003-0.067 0.010-0.131 0.010-0.202 0-1.244-0.622-1.875-1.040-1.875-0.409 0-0.845 0.427-0.845 1.467 0 1.164-1.253 2.062-1.751 2.373l0.027 4.587 0.222-0.009c0.497 0.285 1.831 0.898 4.213 0.898h0.453c0.142 0 0.277-0.023 0.412-0.055-1.674-0.153-2.666-0.608-3.078-0.843z"></path>
<path fill="#000" style="fill: var(--color9, #000)" d="M18 26.667h-0.445c-0.859-0.001-1.555-0.697-1.556-1.556v-4c0.001-0.859 0.697-1.555 1.555-1.555h0.445c0.859 0.001 1.555 0.697 1.555 1.555v4c-0.001 0.859-0.697 1.555-1.555 1.556h-0zM17.555 20.889c-0.123 0-0.222 0.1-0.222 0.223 0 0 0 0 0 0v0 4c0 0.123 0.1 0.222 0.223 0.222 0 0 0 0 0 0h0.444c0.122-0.001 0.221-0.1 0.222-0.222v-4c-0-0.123-0.1-0.222-0.222-0.222h-0.445z"></path>
<path fill="#000" style="fill: var(--color9, #000)" d="M23.778 26.667h-0.453c-2.452 0-3.9-0.617-4.544-0.985l0.661-1.158c0.426 0.244 1.659 0.81 3.883 0.81h0.453c0.519 0 0.988-0.38 1.067-0.863 0.004-0.025 0.010-0.051 0.017-0.074 0.064-0.276 0.453-2.238 0.473-2.5-0.001-0.544-0.464-1.007-1.032-1.007h-2.223c-0 0-0 0-0 0-0.368 0-0.666-0.298-0.666-0.666 0-0.139 0.042-0.267 0.115-0.374l-0.002 0.002c0.137-0.206 0.305-0.49 0.305-1.291 0-0.797-0.314-1.171-0.427-1.216 0.038 0.025-0.124 0.23-0.124 0.807 0 1.49-1.444 2.551-2.066 2.94l-0.705-1.131c0.695-0.433 1.438-1.135 1.438-1.807 0-1.474 0.759-2.133 1.51-2.133 0.838 0 1.707 0.951 1.707 2.542 0 0.38-0.047 0.714-0.114 0.995h1.252c1.304 0 2.364 1.061 2.364 2.364 0 0.082 0 0.22-0.258 1.546-0.11 0.566-0.185 0.953-0.259 1.218l0.012 0.002c-0.185 1.129-1.21 1.98-2.383 1.98z"></path>
<path fill="#000" style="fill: var(--color9, #000)" d="M13.556 23.111h-3.556c-1.102 0-2-0.898-2-2v-5.556h-1.556c-0.613-0.001-1.11-0.498-1.111-1.111v-0c0-0.31 0.132-0.608 0.362-0.815l8.511-8.112c0.12-0.114 0.282-0.183 0.46-0.183s0.34 0.070 0.46 0.184l-0-0 2.207 2.1v-0.729c0-0.368 0.299-0.666 0.667-0.666h2.667c0.368 0 0.666 0.299 0.666 0.666v4.541l2.317 2.211-0.92 0.966-2.524-2.409c-0.127-0.122-0.206-0.293-0.206-0.482v-4.16h-1.333v1.618c-0 0.368-0.299 0.666-0.667 0.666-0.178 0-0.34-0.070-0.46-0.184l0 0-2.874-2.735-7.66 7.302h1.66c0.368 0 0.666 0.299 0.666 0.666v6.223c0.001 0.368 0.299 0.665 0.667 0.666h3.556v1.333zM6.609 14.601v0z"></path>
</symbol>
<symbol id="young-motivated-team" viewBox="0 0 32 32">
<path fill="#efefef" style="fill: var(--color4, #efefef)" d="M3.704 7.446c0 6.148-3.185 10.37-3.185 13.333s1.703 9.185 15.332 9.185c13.63 0 15.63-8.37 15.63-11.629 0.001-15.259-27.777-21.777-27.777-10.889z"></path>
<path fill="#a4afc1" style="fill: var(--color3, #a4afc1)" d="M28.445 4.889c-0.736-0.001-1.332-0.597-1.334-1.333v-0c0.001-0.736 0.597-1.332 1.333-1.333h0c0.736 0.001 1.332 0.597 1.333 1.333v0c-0.001 0.736-0.597 1.332-1.333 1.333h-0zM28.445 3.111c-0.245 0-0.445 0.199-0.445 0.445s0.199 0.445 0.445 0.445v0c0.246 0 0.445-0.199 0.445-0.445s-0.199-0.445-0.445-0.445v0z"></path>
<path fill="#f3f3f1" style="fill: var(--color6, #f3f3f1)" d="M23.111 19.778c0.614 0 1.111-0.497 1.111-1.111s-0.497-1.111-1.111-1.111v0c-0.614 0-1.111 0.498-1.111 1.111s0.498 1.111 1.111 1.111v0zM8.889 19.778c0.005 0 0.011 0 0.017 0 0.614 0 1.111-0.498 1.111-1.111s-0.498-1.111-1.111-1.111c-0.006 0-0.012 0-0.018 0h0.001c-0.614 0-1.111 0.498-1.111 1.111s0.498 1.111 1.111 1.111v0zM16 20.222c1.105 0 2-0.895 2-2s-0.895-2-2-2v0c-1.105 0-2 0.895-2 2s0.895 2 2 2v0zM20.222 26.667v-2c0-0 0-0 0-0 0-0.982-0.796-1.777-1.777-1.777-0 0-0 0-0 0h-4.889c-0.982 0-1.777 0.796-1.777 1.777v0 2h8.444zM11.778 24.889v-1.111c0-0.982-0.796-1.777-1.777-1.777-0 0-0 0-0 0h-2.222c-0 0-0 0-0 0-0.982 0-1.777 0.796-1.777 1.777 0 0 0 0 0 0v0 1.111h5.778z"></path>
<path fill="#f3f3f1" style="fill: var(--color6, #f3f3f1)" d="M26 24.889v-1.111c0-0 0-0 0-0 0-0.982-0.796-1.777-1.777-1.777-0 0-0 0-0.001 0h-2.222c-0 0-0 0-0 0-0.982 0-1.777 0.796-1.777 1.777 0 0 0 0 0 0v0 1.111h5.778z"></path>
<path fill="#2fdf84" style="fill: var(--color5, #2fdf84)" d="M21.555 15.333c0.978 0 1.778-0.8 1.778-1.777v-7.556h-14.666v7.556c0 0.978 0.8 1.778 1.777 1.778h11.111z"></path>
<path fill="#d5dbe1" style="fill: var(--color8, #d5dbe1)" d="M24 18.667c0-0.169 0.044-0.325 0.111-0.468-0.178-0.378-0.556-0.644-1-0.644-0.614 0-1.111 0.498-1.111 1.111v0c0 0.613 0.498 1.111 1.111 1.111h0c0.445 0 0.823-0.266 1-0.643-0.067-0.143-0.111-0.299-0.111-0.468zM9.778 18.667c0-0.169 0.043-0.325 0.111-0.468-0.178-0.378-0.556-0.644-1-0.644-0.614 0-1.111 0.498-1.111 1.111v0c0 0.614 0.498 1.111 1.111 1.111v0c0.444 0 0.822-0.266 1-0.643-0.068-0.143-0.111-0.299-0.111-0.468zM16 18.222c0-0.739 0.404-1.376 1-1.723-0.295-0.172-0.634-0.277-1-0.277-1.105 0-2 0.895-2 2s0.895 2 2 2c0.366 0 0.705-0.105 1-0.277-0.596-0.346-1-0.984-1-1.723zM15.556 22.889h-2c-0.982 0-1.777 0.796-1.777 1.777v0 2h2v-2c0-0 0-0 0-0 0-0.982 0.796-1.777 1.777-1.777v0zM9.778 22h-2c-0 0-0 0-0 0-0.982 0-1.777 0.796-1.777 1.777 0 0 0 0 0 0v0 1.111h2v-1.111c0-0.982 0.796-1.777 1.778-1.777 0 0 0 0 0 0v0zM24 22h-2c-0 0-0 0-0 0-0.982 0-1.777 0.796-1.777 1.777 0 0 0 0 0 0v0 1.111h2v-1.111c0-0.982 0.796-1.777 1.777-1.777 0 0 0 0 0 0v0z"></path>
<path fill="#00b871" style="fill: var(--color7, #00b871)" d="M10.667 13.556v-7.556h-2v7.556c0 0.978 0.8 1.778 1.777 1.778h2c-0.977 0-1.777-0.8-1.777-1.777z"></path>
<path fill="#000" style="fill: var(--color9, #000)" d="M6.889 5.333h18.222v1.333h-18.222v-1.333z"></path>
<path fill="#000" style="fill: var(--color9, #000)" d="M21.555 16h-2v-1.333h2c0.613-0.001 1.111-0.498 1.111-1.111v-6.889h-13.334v6.889c0.001 0.613 0.498 1.111 1.111 1.111h2v1.333h-2c-1.348 0-2.444-1.096-2.444-2.444v-7.556c0-0.368 0.299-0.666 0.667-0.667h14.666c0.368 0 0.666 0.298 0.667 0.666v7.556c0 1.348-1.096 2.444-2.445 2.444z"></path>
<path fill="#000" style="fill: var(--color9, #000)" d="M13.138 13.137l-0.942-0.942 2.223-2.222c0.12-0.121 0.287-0.195 0.471-0.195 0.122 0 0.236 0.033 0.334 0.090l-0.003-0.002 1.132 0.647 2.53-2.335 0.905 0.98-2.889 2.666c-0.213 0.197-0.53 0.234-0.783 0.089l-1.113-0.636-1.863 1.861z"></path>
<path fill="#000" style="fill: var(--color9, #000)" d="M20 11.556h-1.333v-2.222h-2.223v-1.333h2.889c0.368 0 0.667 0.299 0.667 0.667v0 2.889zM23.111 20.445c-0.981-0.001-1.776-0.796-1.777-1.778v-0c0.001-0.981 0.796-1.777 1.777-1.778h0c0.981 0.001 1.777 0.796 1.778 1.777v0c-0.001 0.981-0.796 1.777-1.777 1.778h-0zM23.111 18.222c-0.245 0-0.444 0.199-0.444 0.445s0.199 0.445 0.445 0.445c0 0 0 0 0 0v0c0.245-0 0.444-0.199 0.444-0.445s-0.199-0.445-0.445-0.445c-0 0-0 0-0 0v0zM26.667 24.889h-1.334v-1.111c-0.001-0.613-0.498-1.11-1.111-1.111h-2.889v-1.334h2.889c1.349 0 2.445 1.096 2.445 2.445v1.111zM8.889 20.445c-0.981-0.001-1.777-0.796-1.778-1.778v-0c0.001-0.981 0.796-1.777 1.777-1.778h0c0.981 0.001 1.777 0.796 1.778 1.777v0c-0.001 0.982-0.796 1.777-1.778 1.778h-0zM8.889 18.222c-0.246 0-0.445 0.199-0.445 0.445s0.199 0.445 0.445 0.445v0c0.246 0 0.445-0.199 0.445-0.445s-0.199-0.445-0.445-0.445v0zM6.667 24.889h-1.333v-1.111c0-1.349 1.096-2.445 2.445-2.445h2.889v1.334h-2.889c-0.613 0.001-1.11 0.498-1.111 1.111v1.111zM16 20.889c-1.47 0-2.667-1.196-2.667-2.666s1.197-2.667 2.667-2.667c1.47 0 2.667 1.197 2.667 2.667s-1.197 2.666-2.667 2.666zM16 16.889c-0.736 0.001-1.332 0.597-1.333 1.333v0c0.001 0.736 0.597 1.332 1.333 1.333h0c0.736-0.001 1.332-0.597 1.333-1.333v-0c-0.001-0.736-0.597-1.332-1.333-1.334h-0zM20.889 26.666h-1.333v-2c-0.001-0.613-0.498-1.11-1.111-1.111h-4.889c-0.613 0.001-1.11 0.498-1.111 1.111v2h-1.334v-2c0-1.348 1.096-2.444 2.444-2.444h4.889c1.348 0 2.444 1.096 2.444 2.445v2z"></path>
<path fill="#000" style="fill: var(--color9, #000)" d="M1.778 25.333h28.445v1.334h-28.445v-1.334z"></path>
</symbol>
<symbol id="you-will-get" viewBox="0 0 32 32">
<path fill="#efefef" style="fill: var(--color4, #efefef)" d="M7.446 3.704c6.148 0 10.371-3.185 13.333-3.185s9.185 1.703 9.185 15.332c0 13.629-8.371 15.629-11.629 15.629-15.259 0.001-21.778-27.777-10.889-27.777z"></path>
<path fill="#a4afc1" style="fill: var(--color3, #a4afc1)" d="M23.914 3.215l0.628-0.628 1.257 1.257-0.629 0.628-1.257-1.257zM27.527 6.829l0.628-0.629 1.257 1.257-0.629 0.629-1.257-1.257zM27.37 3.843l1.257-1.257 0.628 0.629-1.257 1.257-0.628-0.628z"></path>
<path fill="#f3f3f1" style="fill: var(--color6, #f3f3f1)" d="M18.889 22.444h-12.889v-3.111c0-1.473 1.194-2.667 2.667-2.667h7.555c1.473 0 2.667 1.194 2.667 2.667v3.111zM12.444 13.556c1.841 0 3.333-1.492 3.333-3.333s-1.492-3.333-3.333-3.333c-1.841 0-3.333 1.492-3.333 3.333s1.492 3.333 3.333 3.333z"></path>
<path fill="#2fdf84" style="fill: var(--color5, #2fdf84)" d="M15.769 10.044c-1.511 0.231-2.435-1.378-2.435-1.378-1.565 1.458-3.547 1.422-4.213 1.36 0.098-1.751 1.547-3.138 3.325-3.138s3.236 1.395 3.324 3.156zM20.889 26c2.823 0 5.111-2.288 5.111-5.111s-2.288-5.111-5.111-5.111-5.111 2.288-5.111 5.111c0 2.823 2.288 5.111 5.111 5.111z"></path>
<path fill="#00b871" style="fill: var(--color7, #00b871)" d="M17.778 20.889c0-2.48 1.767-4.547 4.111-5.012-0.3-0.063-0.646-0.099-1-0.1h-0c-2.823 0-5.111 2.288-5.111 5.111s2.288 5.111 5.111 5.111c0.354-0 0.699-0.036 1.033-0.105l-0.033 0.006c-2.344-0.465-4.111-2.532-4.111-5.011z"></path>
<path fill="#d5dbe1" style="fill: var(--color8, #d5dbe1)" d="M10.667 16.667h-2c-1.473 0-2.667 1.194-2.667 2.667v3.111h2v-3.111c0-1.473 1.194-2.667 2.667-2.667zM11.111 10.222c0-1.49 0.984-2.737 2.333-3.164-0.317-0.1-0.649-0.17-1-0.17-1.841 0-3.333 1.492-3.333 3.333s1.492 3.333 3.333 3.333c0.351 0 0.683-0.069 1-0.17-1.349-0.427-2.333-1.674-2.333-3.163z"></path>
<path fill="#00b871" style="fill: var(--color7, #00b871)" d="M13.443 7.057c-0.316-0.101-0.648-0.168-0.998-0.168-1.778 0-3.227 1.387-3.324 3.138 0.369 0.035 1.146 0.051 2.027-0.18 0.148-1.323 1.062-2.399 2.295-2.789z"></path>
<path fill="#000" style="fill: var(--color9, #000)" d="M15.465 10.734c-1.032 0-1.797-0.617-2.246-1.116-1.677 1.189-3.575 1.126-4.161 1.072l0.124-1.327c0.517 0.049 2.313 0.107 3.697-1.184 0.119-0.111 0.278-0.179 0.454-0.179 0.035 0 0.070 0.003 0.103 0.008l-0.004-0c0.206 0.032 0.378 0.154 0.477 0.324l0.002 0.003c0.005 0.009 0.722 1.201 1.757 1.051l0.202 1.317c-0.122 0.020-0.263 0.031-0.406 0.031h-0z"></path>
<path fill="#000" style="fill: var(--color9, #000)" d="M12.444 14.222c-2.205 0-4-1.795-4-4s1.795-4 4-4 4 1.795 4 4-1.795 4-4 4zM12.444 7.556c-1.47 0-2.667 1.197-2.667 2.667s1.196 2.667 2.667 2.667c1.47 0 2.667-1.197 2.667-2.667s-1.197-2.667-2.667-2.667zM20.889 26.667c-3.186 0-5.778-2.592-5.778-5.778s2.592-5.778 5.778-5.778c3.186 0 5.778 2.592 5.778 5.778s-2.592 5.778-5.778 5.778zM20.889 16.444c-2.451 0-4.444 1.994-4.444 4.444s1.994 4.444 4.444 4.444 4.444-1.994 4.444-4.444c0-2.451-1.994-4.444-4.444-4.444z"></path>
<path fill="#000" style="fill: var(--color9, #000)" d="M20 23.111c-0 0-0 0-0.001 0-0.184 0-0.35-0.075-0.471-0.195l-1.778-1.778 0.943-0.943 1.274 1.274 2.642-3.019 1.003 0.877-3.111 3.556c-0.118 0.134-0.288 0.221-0.479 0.227l-0.001 0c-0.007 0.001-0.015 0.001-0.022 0.001zM13.333 23.111h-7.333c-0.368 0-0.667-0.299-0.667-0.667v-3.111c0-1.838 1.495-3.333 3.333-3.333h5.573v1.333h-5.573c-1.103 0-2 0.897-2 2v2.445h6.667v1.333z"></path>
</symbol>
<symbol id="you-will-not-get-icon" viewBox="0 0 32 32">
<path fill="#efefef" style="fill: var(--color4, #efefef)" d="M28.296 24.554c0-6.148 3.185-10.371 3.185-13.333s-1.703-9.185-15.332-9.185-15.63 8.371-15.63 11.63c0 15.259 27.778 21.778 27.778 10.889z"></path>
<path fill="#a4afc1" style="fill: var(--color3, #a4afc1)" d="M23.555 11.556c-0.735 0-1.333-0.598-1.333-1.333s0.598-1.333 1.333-1.333c0.735 0 1.333 0.598 1.333 1.333s-0.598 1.333-1.333 1.333zM23.555 9.778c-0.245 0-0.444 0.199-0.444 0.444v0c0 0.245 0.2 0.444 0.444 0.444s0.444-0.199 0.445-0.444v-0c0-0.245-0.2-0.444-0.445-0.444z"></path>
<path fill="#f3f3f1" style="fill: var(--color6, #f3f3f1)" d="M18.889 22.445h-12.889v-3.111c0-1.473 1.194-2.667 2.667-2.667h7.555c1.473 0 2.667 1.194 2.667 2.667v3.111zM12.444 13.556c1.841 0 3.333-1.492 3.333-3.333s-1.492-3.333-3.333-3.333c-1.841 0-3.333 1.492-3.333 3.333s1.492 3.333 3.333 3.333z"></path>
<path fill="#e8184a" style="fill: var(--color2, #e8184a)" d="M15.769 10.044c-1.511 0.231-2.435-1.378-2.435-1.378-1.565 1.458-3.547 1.422-4.213 1.36 0.098-1.751 1.547-3.138 3.325-3.138s3.236 1.395 3.324 3.156zM20.889 26c2.823 0 5.111-2.288 5.111-5.111s-2.288-5.111-5.111-5.111c-2.823 0-5.111 2.288-5.111 5.111s2.288 5.111 5.111 5.111z"></path>
<path fill="#000" style="fill: var(--color9, #000)" opacity="0.2" d="M17.778 20.889c0-2.48 1.767-4.547 4.111-5.012-0.3-0.063-0.646-0.099-1-0.1h-0c-2.823 0-5.111 2.288-5.111 5.111s2.288 5.111 5.111 5.111c0.354-0 0.699-0.036 1.033-0.105l-0.033 0.006c-2.344-0.465-4.111-2.532-4.111-5.011z"></path>
<path fill="#d5dbe1" style="fill: var(--color8, #d5dbe1)" d="M10.667 16.667h-2c-1.473 0-2.667 1.194-2.667 2.667v3.111h2v-3.111c0-1.473 1.194-2.667 2.667-2.667zM11.111 10.222c0-1.49 0.984-2.737 2.333-3.164-0.317-0.1-0.649-0.17-1-0.17-1.841 0-3.333 1.492-3.333 3.333s1.492 3.333 3.333 3.333c0.351 0 0.683-0.069 1-0.17-1.349-0.427-2.333-1.674-2.333-3.163z"></path>
<path fill="#ba133b" style="fill: var(--color12, #ba133b)" d="M13.443 7.057c-0.316-0.101-0.648-0.168-0.998-0.168-1.778 0-3.227 1.387-3.324 3.138 0.369 0.035 1.146 0.051 2.027-0.18 0.148-1.323 1.062-2.399 2.295-2.789z"></path>
<path fill="#000" style="fill: var(--color9, #000)" d="M15.465 10.734c-1.032 0-1.797-0.617-2.246-1.116-1.675 1.188-3.57 1.129-4.162 1.072l0.125-1.327c0.519 0.049 2.313 0.106 3.696-1.184 0.119-0.111 0.279-0.179 0.455-0.179 0.246 0 0.461 0.133 0.577 0.331l0.002 0.003c0.005 0.009 0.722 1.201 1.757 1.051l0.202 1.317c-0.122 0.020-0.262 0.031-0.405 0.031h-0z"></path>
<path fill="#000" style="fill: var(--color9, #000)" d="M12.444 14.222c-2.205 0-4-1.795-4-4s1.795-4 4-4 4 1.795 4 4-1.795 4-4 4zM12.444 7.556c-1.47 0-2.667 1.197-2.667 2.667s1.196 2.667 2.667 2.667c1.47 0 2.667-1.197 2.667-2.667s-1.197-2.667-2.667-2.667zM20.889 26.667c-3.186 0-5.778-2.592-5.778-5.778s2.592-5.778 5.778-5.778c3.186 0 5.778 2.592 5.778 5.778s-2.592 5.778-5.778 5.778zM20.889 16.444c-2.451 0-4.444 1.994-4.444 4.444s1.994 4.444 4.444 4.444 4.444-1.994 4.444-4.444c0-2.451-1.994-4.444-4.444-4.444z"></path>
<path fill="#000" style="fill: var(--color9, #000)" d="M18.858 21.973l3.111-3.111 0.943 0.943-3.111 3.111-0.943-0.943z"></path>
<path fill="#000" style="fill: var(--color9, #000)" d="M18.858 19.805l0.943-0.943 3.111 3.111-0.943 0.943-3.111-3.111zM13.333 23.111h-7.333c-0.368 0-0.667-0.299-0.667-0.667v-3.111c0-1.838 1.496-3.333 3.333-3.333h5.573v1.333h-5.573c-1.102 0-2 0.897-2 2v2.445h6.667v1.333z"></path>
</symbol>
</defs>
</svg>
